#N canvas 343 565 450 300 10;
#N canvas 476 152 1330 753 KarplusStrong 0;
#X obj 101 496 *~;
#X obj 102 620 *~;
#X obj 101 677 dac~;
#N canvas 820 311 632 489 delay 1;
#X obj 78 222 inlet~;
#X obj 257 40 inlet~;
#X obj 78 273 +~;
#X obj 258 197 +~;
#X obj 257 287 outlet~;
#X obj 78 322 delwrite~ buffer2 1000;
#X obj 257 224 *~ 0.5;
#X obj 298 106 z~ 1;
#X obj 258 257 *~ 0.994;
#X text 342 105 Delays the original signal by 1 sample;
#X text 315 254 The decay \, must be below 1 \, for a stable feedback
;
#X obj 258 74 vd~ buffer2;
#X text 162 134 The filter->;
#X connect 0 0 2 0;
#X connect 1 0 11 0;
#X connect 2 0 5 0;
#X connect 3 0 6 0;
#X connect 6 0 8 0;
#X connect 7 0 3 1;
#X connect 8 0 4 0;
#X connect 8 0 2 1;
#X connect 11 0 3 0;
#X connect 11 0 7 0;
#X restore 102 552 pd delay;
#X obj 194 579 hsl 128 15 0 1 0 1 empty empty empty -2 -8 0 10 -262144
-1 -1 7800 1;
#X obj 191 604 line~;
#X msg 368 479 0;
#X floatatom 478 475 5 0 0 0 - - -;
#X msg 215 465 1;
#X obj 349 365 t b b f;
#X obj 478 446 expr 1000 / $f1;
#X floatatom 407 367 5 0 0 0 - - -;
#X text 339 579 Volume;
#X obj 357 638 spectrogram~;
#N canvas 704 137 450 300 C4 0;
#X obj 147 72 inlet;
#X obj 147 173 outlet;
#X msg 147 122 261.63;
#X connect 0 0 2 0;
#X connect 2 0 1 0;
#X restore 104 289 pd C4;
#N canvas 1038 91 450 300 C4/D4 0;
#X obj 200 88 inlet;
#X obj 200 190 outlet;
#X msg 200 138 277.18;
#X connect 0 0 2 0;
#X connect 2 0 1 0;
#X restore 148 289 pd C4/D4;
#N canvas 1032 173 450 300 D4 0;
#X obj 210 98 inlet;
#X obj 210 200 outlet;
#X msg 210 148 293.66;
#X connect 0 0 2 0;
#X connect 2 0 1 0;
#X restore 208 289 pd D4;
#N canvas 1066 107 450 300 D4/E4 0;
#X obj 220 108 inlet;
#X obj 220 210 outlet;
#X msg 220 158 311.13;
#X connect 0 0 2 0;
#X connect 2 0 1 0;
#X restore 248 289 pd D4/E4;
#N canvas 1333 89 450 300 E4 0;
#X obj 230 118 inlet;
#X obj 230 220 outlet;
#X msg 230 168 329.63;
#X connect 0 0 2 0;
#X connect 2 0 1 0;
#X restore 307 289 pd E4;
#N canvas 1378 131 450 300 F4 0;
#X obj 240 128 inlet;
#X obj 240 230 outlet;
#X msg 240 178 349.23;
#X connect 0 0 2 0;
#X connect 2 0 1 0;
#X restore 349 289 pd F4;
#N canvas 1365 139 450 300 F4/G4 0;
#X obj 250 138 inlet;
#X obj 250 240 outlet;
#X msg 250 188 369.99;
#X connect 0 0 2 0;
#X connect 2 0 1 0;
#X restore 391 289 pd F4/G4;
#N canvas 1371 112 450 300 G4 0;
#X obj 260 148 inlet;
#X obj 260 250 outlet;
#X msg 260 198 392;
#X connect 0 0 2 0;
#X connect 2 0 1 0;
#X restore 450 289 pd G4;
#N canvas 1464 92 450 300 G4/A4 0;
#X obj 270 158 inlet;
#X obj 270 260 outlet;
#X msg 270 208 415.3;
#X connect 0 0 2 0;
#X connect 2 0 1 0;
#X restore 494 290 pd G4/A4;
#N canvas 1333 218 450 300 A4 0;
#X obj 198 120 inlet;
#X obj 198 222 outlet;
#X msg 198 170 440;
#X connect 0 0 2 0;
#X connect 2 0 1 0;
#X restore 553 290 pd A4;
#N canvas 1240 196 450 300 A4/B4 0;
#X obj 179 112 inlet;
#X obj 179 214 outlet;
#X msg 179 162 466.16;
#X connect 0 0 2 0;
#X connect 2 0 1 0;
#X restore 594 290 pd A4/B4;
#N canvas 1204 152 450 300 B4 0;
#X obj 134 60 inlet;
#X obj 134 162 outlet;
#X msg 134 110 493.88;
#X connect 0 0 2 0;
#X connect 2 0 1 0;
#X restore 656 290 pd B4;
#X obj 590 172 keyup;
#X floatatom 590 203 5 0 0 0 - - -;
#X obj 104 219 select 113 119 101 114 116 121 117 105 111 112 229 48
;
#X floatatom 635 204 3 0 0 0 - - -;
#X obj 635 173 keyname;
#X symbolatom 674 206 10 0 0 0 - - -;
#N canvas 704 137 450 300 e4 0;
#X obj 147 72 inlet;
#X obj 147 173 outlet;
#X msg 147 122 329.63;
#X connect 0 0 2 0;
#X connect 2 0 1 0;
#X restore 727 291 pd e4;
#N canvas 704 137 450 300 b3 0;
#X obj 147 72 inlet;
#X obj 147 173 outlet;
#X msg 147 122 246.94;
#X connect 0 0 2 0;
#X connect 2 0 1 0;
#X restore 774 292 pd b3;
#N canvas 467 171 450 300 g3 0;
#X obj 147 72 inlet;
#X obj 147 173 outlet;
#X msg 147 122 196;
#X connect 0 0 2 0;
#X connect 2 0 1 0;
#X restore 817 292 pd g3;
#N canvas 1221 376 450 300 d3 0;
#X obj 147 72 inlet;
#X obj 147 173 outlet;
#X msg 147 122 146.83;
#X connect 0 0 2 0;
#X connect 2 0 1 0;
#X restore 860 293 pd d3;
#N canvas 1111 180 450 300 a2 0;
#X obj 147 72 inlet;
#X obj 147 173 outlet;
#X msg 147 122 110;
#X connect 0 0 2 0;
#X connect 2 0 1 0;
#X restore 904 293 pd a2;
#N canvas 704 137 450 300 e2 0;
#X obj 147 72 inlet;
#X obj 147 173 outlet;
#X msg 147 122 82.41;
#X connect 0 0 2 0;
#X connect 2 0 1 0;
#X restore 948 294 pd e2;
#X obj 796 238 select 122 120 99 118 98 ';
#X text 177 189 q w e r t y u i o p å 0;
#X text 847 208 z x c v b;
#X text 844 190 Guitar notes;
#X text 217 168 Piano notes;
#X text 454 366 Noise;
#X obj 368 439 delay 8;
#X obj 101 395 noise~;
#X text 592 443 Frequency to Ms;
#X text 523 475 The lower the value \, the higher the pitch;
#X text 417 387;
#X connect 0 0 3 0;
#X connect 1 0 2 0;
#X connect 1 0 2 1;
#X connect 1 0 13 0;
#X connect 3 0 1 0;
#X connect 4 0 5 0;
#X connect 5 0 1 1;
#X connect 6 0 0 1;
#X connect 7 0 3 1;
#X connect 8 0 0 1;
#X connect 9 0 8 0;
#X connect 9 1 44 0;
#X connect 9 2 10 0;
#X connect 10 0 7 0;
#X connect 11 0 44 1;
#X connect 14 0 9 0;
#X connect 15 0 9 0;
#X connect 16 0 9 0;
#X connect 17 0 9 0;
#X connect 18 0 9 0;
#X connect 19 0 9 0;
#X connect 20 0 9 0;
#X connect 21 0 9 0;
#X connect 22 0 9 0;
#X connect 23 0 9 0;
#X connect 24 0 9 0;
#X connect 25 0 9 0;
#X connect 26 0 27 0;
#X connect 27 0 38 0;
#X connect 27 0 28 0;
#X connect 28 0 14 0;
#X connect 28 1 15 0;
#X connect 28 2 16 0;
#X connect 28 3 17 0;
#X connect 28 4 18 0;
#X connect 28 5 19 0;
#X connect 28 6 20 0;
#X connect 28 7 21 0;
#X connect 28 8 22 0;
#X connect 28 9 23 0;
#X connect 28 10 24 0;
#X connect 28 11 25 0;
#X connect 30 0 29 0;
#X connect 30 1 31 0;
#X connect 32 0 9 0;
#X connect 33 0 9 0;
#X connect 34 0 9 0;
#X connect 35 0 9 0;
#X connect 36 0 9 0;
#X connect 37 0 9 0;
#X connect 38 0 32 0;
#X connect 38 1 33 0;
#X connect 38 2 34 0;
#X connect 38 3 35 0;
#X connect 38 4 36 0;
#X connect 38 5 37 0;
#X connect 44 0 6 0;
#X connect 45 0 0 0;
#X restore 134 190 pd KarplusStrong;
